<mxfile host="app.diagrams.net">
  <diagram id="blood-scraper-erd" name="Blood Scraper ERD">
    <mxGraphModel dx="1422" dy="794" grid="1" gridSize="10" guides="1" tooltips="1" connect="1" arrows="1" fold="1" page="1" pageScale="1" pageWidth="1169" pageHeight="827" math="0" shadow="0">
      <root>
        <mxCell id="0" />
        <mxCell id="1" parent="0" />

        <!-- RCKIK Table -->
        <mxCell id="rckik-table" value="rckik" style="shape=table;startSize=30;container=1;collapsible=0;childLayout=tableLayout;fixedRows=1;rowLines=0;fontStyle=1;align=center;resizeLast=1;fillColor=#dae8fc;strokeColor=#6c8ebf;" vertex="1" parent="1">
          <mxGeometry x="80" y="80" width="280" height="240" as="geometry" />
        </mxCell>
        <mxCell id="rckik-row-1" value="" style="shape=tableRow;horizontal=0;startSize=0;swimlaneHead=0;swimlaneBody=0;fillColor=none;collapsible=0;dropTarget=0;points=[[0,0.5],[1,0.5]];portConstraint=eastwest;top=0;left=0;right=0;bottom=1;" vertex="1" parent="rckik-table">
          <mxGeometry y="30" width="280" height="30" as="geometry" />
        </mxCell>
        <mxCell id="rckik-row-1-col-1" value="PK" style="shape=partialRectangle;connectable=0;fillColor=none;top=0;left=0;bottom=0;right=0;fontStyle=1;overflow=hidden;" vertex="1" parent="rckik-row-1">
          <mxGeometry width="40" height="30" as="geometry" />
        </mxCell>
        <mxCell id="rckik-row-1-col-2" value="id: BIGINT" style="shape=partialRectangle;connectable=0;fillColor=none;top=0;left=0;bottom=0;right=0;align=left;spacingLeft=6;fontStyle=1;overflow=hidden;" vertex="1" parent="rckik-row-1">
          <mxGeometry x="40" width="240" height="30" as="geometry" />
        </mxCell>

        <mxCell id="rckik-row-2" value="" style="shape=tableRow;horizontal=0;startSize=0;swimlaneHead=0;swimlaneBody=0;fillColor=none;collapsible=0;dropTarget=0;points=[[0,0.5],[1,0.5]];portConstraint=eastwest;top=0;left=0;right=0;bottom=0;" vertex="1" parent="rckik-table">
          <mxGeometry y="60" width="280" height="30" as="geometry" />
        </mxCell>
        <mxCell id="rckik-row-2-col-1" value="" style="shape=partialRectangle;connectable=0;fillColor=none;top=0;left=0;bottom=0;right=0;overflow=hidden;" vertex="1" parent="rckik-row-2">
          <mxGeometry width="40" height="30" as="geometry" />
        </mxCell>
        <mxCell id="rckik-row-2-col-2" value="code: VARCHAR(50) UNIQUE" style="shape=partialRectangle;connectable=0;fillColor=none;top=0;left=0;bottom=0;right=0;align=left;spacingLeft=6;overflow=hidden;" vertex="1" parent="rckik-row-2">
          <mxGeometry x="40" width="240" height="30" as="geometry" />
        </mxCell>

        <mxCell id="rckik-row-3" value="" style="shape=tableRow;horizontal=0;startSize=0;swimlaneHead=0;swimlaneBody=0;fillColor=none;collapsible=0;dropTarget=0;points=[[0,0.5],[1,0.5]];portConstraint=eastwest;top=0;left=0;right=0;bottom=0;" vertex="1" parent="rckik-table">
          <mxGeometry y="90" width="280" height="30" as="geometry" />
        </mxCell>
        <mxCell id="rckik-row-3-col-1" value="" style="shape=partialRectangle;connectable=0;fillColor=none;top=0;left=0;bottom=0;right=0;overflow=hidden;" vertex="1" parent="rckik-row-3">
          <mxGeometry width="40" height="30" as="geometry" />
        </mxCell>
        <mxCell id="rckik-row-3-col-2" value="name: VARCHAR(255)" style="shape=partialRectangle;connectable=0;fillColor=none;top=0;left=0;bottom=0;right=0;align=left;spacingLeft=6;overflow=hidden;" vertex="1" parent="rckik-row-3">
          <mxGeometry x="40" width="240" height="30" as="geometry" />
        </mxCell>

        <mxCell id="rckik-row-4" value="" style="shape=tableRow;horizontal=0;startSize=0;swimlaneHead=0;swimlaneBody=0;fillColor=none;collapsible=0;dropTarget=0;points=[[0,0.5],[1,0.5]];portConstraint=eastwest;top=0;left=0;right=0;bottom=0;" vertex="1" parent="rckik-table">
          <mxGeometry y="120" width="280" height="30" as="geometry" />
        </mxCell>
        <mxCell id="rckik-row-4-col-1" value="" style="shape=partialRectangle;connectable=0;fillColor=none;top=0;left=0;bottom=0;right=0;overflow=hidden;" vertex="1" parent="rckik-row-4">
          <mxGeometry width="40" height="30" as="geometry" />
        </mxCell>
        <mxCell id="rckik-row-4-col-2" value="city: VARCHAR(100)" style="shape=partialRectangle;connectable=0;fillColor=none;top=0;left=0;bottom=0;right=0;align=left;spacingLeft=6;overflow=hidden;" vertex="1" parent="rckik-row-4">
          <mxGeometry x="40" width="240" height="30" as="geometry" />
        </mxCell>

        <mxCell id="rckik-row-5" value="" style="shape=tableRow;horizontal=0;startSize=0;swimlaneHead=0;swimlaneBody=0;fillColor=none;collapsible=0;dropTarget=0;points=[[0,0.5],[1,0.5]];portConstraint=eastwest;top=0;left=0;right=0;bottom=0;" vertex="1" parent="rckik-table">
          <mxGeometry y="150" width="280" height="30" as="geometry" />
        </mxCell>
        <mxCell id="rckik-row-5-col-1" value="" style="shape=partialRectangle;connectable=0;fillColor=none;top=0;left=0;bottom=0;right=0;overflow=hidden;" vertex="1" parent="rckik-row-5">
          <mxGeometry width="40" height="30" as="geometry" />
        </mxCell>
        <mxCell id="rckik-row-5-col-2" value="website_url: VARCHAR(500)" style="shape=partialRectangle;connectable=0;fillColor=none;top=0;left=0;bottom=0;right=0;align=left;spacingLeft=6;overflow=hidden;" vertex="1" parent="rckik-row-5">
          <mxGeometry x="40" width="240" height="30" as="geometry" />
        </mxCell>

        <mxCell id="rckik-row-6" value="" style="shape=tableRow;horizontal=0;startSize=0;swimlaneHead=0;swimlaneBody=0;fillColor=none;collapsible=0;dropTarget=0;points=[[0,0.5],[1,0.5]];portConstraint=eastwest;top=0;left=0;right=0;bottom=0;" vertex="1" parent="rckik-table">
          <mxGeometry y="180" width="280" height="30" as="geometry" />
        </mxCell>
        <mxCell id="rckik-row-6-col-1" value="" style="shape=partialRectangle;connectable=0;fillColor=none;top=0;left=0;bottom=0;right=0;overflow=hidden;" vertex="1" parent="rckik-row-6">
          <mxGeometry width="40" height="30" as="geometry" />
        </mxCell>
        <mxCell id="rckik-row-6-col-2" value="scraping_enabled: BOOLEAN" style="shape=partialRectangle;connectable=0;fillColor=none;top=0;left=0;bottom=0;right=0;align=left;spacingLeft=6;overflow=hidden;" vertex="1" parent="rckik-row-6">
          <mxGeometry x="40" width="240" height="30" as="geometry" />
        </mxCell>

        <mxCell id="rckik-row-7" value="" style="shape=tableRow;horizontal=0;startSize=0;swimlaneHead=0;swimlaneBody=0;fillColor=none;collapsible=0;dropTarget=0;points=[[0,0.5],[1,0.5]];portConstraint=eastwest;top=0;left=0;right=0;bottom=0;" vertex="1" parent="rckik-table">
          <mxGeometry y="210" width="280" height="30" as="geometry" />
        </mxCell>
        <mxCell id="rckik-row-7-col-1" value="" style="shape=partialRectangle;connectable=0;fillColor=none;top=0;left=0;bottom=0;right=0;overflow=hidden;" vertex="1" parent="rckik-row-7">
          <mxGeometry width="40" height="30" as="geometry" />
        </mxCell>
        <mxCell id="rckik-row-7-col-2" value="scraping_cron_expression: VARCHAR(100)" style="shape=partialRectangle;connectable=0;fillColor=none;top=0;left=0;bottom=0;right=0;align=left;spacingLeft=6;overflow=hidden;" vertex="1" parent="rckik-row-7">
          <mxGeometry x="40" width="240" height="30" as="geometry" />
        </mxCell>

        <!-- Blood Inventory Record Table -->
        <mxCell id="blood-table" value="blood_inventory_record" style="shape=table;startSize=30;container=1;collapsible=0;childLayout=tableLayout;fixedRows=1;rowLines=0;fontStyle=1;align=center;resizeLast=1;fillColor=#fff2cc;strokeColor=#d6b656;" vertex="1" parent="1">
          <mxGeometry x="520" y="80" width="300" height="300" as="geometry" />
        </mxCell>
        <mxCell id="blood-row-1" value="" style="shape=tableRow;horizontal=0;startSize=0;swimlaneHead=0;swimlaneBody=0;fillColor=none;collapsible=0;dropTarget=0;points=[[0,0.5],[1,0.5]];portConstraint=eastwest;top=0;left=0;right=0;bottom=1;" vertex="1" parent="blood-table">
          <mxGeometry y="30" width="300" height="30" as="geometry" />
        </mxCell>
        <mxCell id="blood-row-1-col-1" value="PK" style="shape=partialRectangle;connectable=0;fillColor=none;top=0;left=0;bottom=0;right=0;fontStyle=1;overflow=hidden;" vertex="1" parent="blood-row-1">
          <mxGeometry width="40" height="30" as="geometry" />
        </mxCell>
        <mxCell id="blood-row-1-col-2" value="id: BIGINT" style="shape=partialRectangle;connectable=0;fillColor=none;top=0;left=0;bottom=0;right=0;align=left;spacingLeft=6;fontStyle=1;overflow=hidden;" vertex="1" parent="blood-row-1">
          <mxGeometry x="40" width="260" height="30" as="geometry" />
        </mxCell>

        <mxCell id="blood-row-2" value="" style="shape=tableRow;horizontal=0;startSize=0;swimlaneHead=0;swimlaneBody=0;fillColor=none;collapsible=0;dropTarget=0;points=[[0,0.5],[1,0.5]];portConstraint=eastwest;top=0;left=0;right=0;bottom=0;" vertex="1" parent="blood-table">
          <mxGeometry y="60" width="300" height="30" as="geometry" />
        </mxCell>
        <mxCell id="blood-row-2-col-1" value="FK" style="shape=partialRectangle;connectable=0;fillColor=none;top=0;left=0;bottom=0;right=0;fontStyle=1;overflow=hidden;" vertex="1" parent="blood-row-2">
          <mxGeometry width="40" height="30" as="geometry" />
        </mxCell>
        <mxCell id="blood-row-2-col-2" value="rckik_id: BIGINT" style="shape=partialRectangle;connectable=0;fillColor=none;top=0;left=0;bottom=0;right=0;align=left;spacingLeft=6;overflow=hidden;" vertex="1" parent="blood-row-2">
          <mxGeometry x="40" width="260" height="30" as="geometry" />
        </mxCell>

        <mxCell id="blood-row-3" value="" style="shape=tableRow;horizontal=0;startSize=0;swimlaneHead=0;swimlaneBody=0;fillColor=none;collapsible=0;dropTarget=0;points=[[0,0.5],[1,0.5]];portConstraint=eastwest;top=0;left=0;right=0;bottom=0;" vertex="1" parent="blood-table">
          <mxGeometry y="90" width="300" height="30" as="geometry" />
        </mxCell>
        <mxCell id="blood-row-3-col-1" value="" style="shape=partialRectangle;connectable=0;fillColor=none;top=0;left=0;bottom=0;right=0;overflow=hidden;" vertex="1" parent="blood-row-3">
          <mxGeometry width="40" height="30" as="geometry" />
        </mxCell>
        <mxCell id="blood-row-3-col-2" value="blood_type: VARCHAR(20)" style="shape=partialRectangle;connectable=0;fillColor=none;top=0;left=0;bottom=0;right=0;align=left;spacingLeft=6;overflow=hidden;" vertex="1" parent="blood-row-3">
          <mxGeometry x="40" width="260" height="30" as="geometry" />
        </mxCell>

        <mxCell id="blood-row-4" value="" style="shape=tableRow;horizontal=0;startSize=0;swimlaneHead=0;swimlaneBody=0;fillColor=none;collapsible=0;dropTarget=0;points=[[0,0.5],[1,0.5]];portConstraint=eastwest;top=0;left=0;right=0;bottom=0;" vertex="1" parent="blood-table">
          <mxGeometry y="120" width="300" height="30" as="geometry" />
        </mxCell>
        <mxCell id="blood-row-4-col-1" value="" style="shape=partialRectangle;connectable=0;fillColor=none;top=0;left=0;bottom=0;right=0;overflow=hidden;" vertex="1" parent="blood-row-4">
          <mxGeometry width="40" height="30" as="geometry" />
        </mxCell>
        <mxCell id="blood-row-4-col-2" value="recorded_at: TIMESTAMP" style="shape=partialRectangle;connectable=0;fillColor=none;top=0;left=0;bottom=0;right=0;align=left;spacingLeft=6;overflow=hidden;" vertex="1" parent="blood-row-4">
          <mxGeometry x="40" width="260" height="30" as="geometry" />
        </mxCell>

        <mxCell id="blood-row-5" value="" style="shape=tableRow;horizontal=0;startSize=0;swimlaneHead=0;swimlaneBody=0;fillColor=none;collapsible=0;dropTarget=0;points=[[0,0.5],[1,0.5]];portConstraint=eastwest;top=0;left=0;right=0;bottom=0;" vertex="1" parent="blood-table">
          <mxGeometry y="150" width="300" height="30" as="geometry" />
        </mxCell>
        <mxCell id="blood-row-5-col-1" value="" style="shape=partialRectangle;connectable=0;fillColor=none;top=0;left=0;bottom=0;right=0;overflow=hidden;" vertex="1" parent="blood-row-5">
          <mxGeometry width="40" height="30" as="geometry" />
        </mxCell>
        <mxCell id="blood-row-5-col-2" value="inventory_status: VARCHAR(20)" style="shape=partialRectangle;connectable=0;fillColor=none;top=0;left=0;bottom=0;right=0;align=left;spacingLeft=6;overflow=hidden;" vertex="1" parent="blood-row-5">
          <mxGeometry x="40" width="260" height="30" as="geometry" />
        </mxCell>

        <mxCell id="blood-row-6" value="" style="shape=tableRow;horizontal=0;startSize=0;swimlaneHead=0;swimlaneBody=0;fillColor=none;collapsible=0;dropTarget=0;points=[[0,0.5],[1,0.5]];portConstraint=eastwest;top=0;left=0;right=0;bottom=0;" vertex="1" parent="blood-table">
          <mxGeometry y="180" width="300" height="30" as="geometry" />
        </mxCell>
        <mxCell id="blood-row-6-col-1" value="" style="shape=partialRectangle;connectable=0;fillColor=none;top=0;left=0;bottom=0;right=0;overflow=hidden;" vertex="1" parent="blood-row-6">
          <mxGeometry width="40" height="30" as="geometry" />
        </mxCell>
        <mxCell id="blood-row-6-col-2" value="quantity_level: INTEGER" style="shape=partialRectangle;connectable=0;fillColor=none;top=0;left=0;bottom=0;right=0;align=left;spacingLeft=6;overflow=hidden;" vertex="1" parent="blood-row-6">
          <mxGeometry x="40" width="260" height="30" as="geometry" />
        </mxCell>

        <mxCell id="blood-row-7" value="" style="shape=tableRow;horizontal=0;startSize=0;swimlaneHead=0;swimlaneBody=0;fillColor=none;collapsible=0;dropTarget=0;points=[[0,0.5],[1,0.5]];portConstraint=eastwest;top=0;left=0;right=0;bottom=0;" vertex="1" parent="blood-table">
          <mxGeometry y="210" width="300" height="30" as="geometry" />
        </mxCell>
        <mxCell id="blood-row-7-col-1" value="" style="shape=partialRectangle;connectable=0;fillColor=none;top=0;left=0;bottom=0;right=0;overflow=hidden;" vertex="1" parent="blood-row-7">
          <mxGeometry width="40" height="30" as="geometry" />
        </mxCell>
        <mxCell id="blood-row-7-col-2" value="notes: TEXT" style="shape=partialRectangle;connectable=0;fillColor=none;top=0;left=0;bottom=0;right=0;align=left;spacingLeft=6;overflow=hidden;" vertex="1" parent="blood-row-7">
          <mxGeometry x="40" width="260" height="30" as="geometry" />
        </mxCell>

        <mxCell id="blood-row-8" value="" style="shape=tableRow;horizontal=0;startSize=0;swimlaneHead=0;swimlaneBody=0;fillColor=none;collapsible=0;dropTarget=0;points=[[0,0.5],[1,0.5]];portConstraint=eastwest;top=0;left=0;right=0;bottom=0;" vertex="1" parent="blood-table">
          <mxGeometry y="240" width="300" height="30" as="geometry" />
        </mxCell>
        <mxCell id="blood-row-8-col-1" value="" style="shape=partialRectangle;connectable=0;fillColor=none;top=0;left=0;bottom=0;right=0;overflow=hidden;" vertex="1" parent="blood-row-8">
          <mxGeometry width="40" height="30" as="geometry" />
        </mxCell>
        <mxCell id="blood-row-8-col-2" value="source_url: VARCHAR(500)" style="shape=partialRectangle;connectable=0;fillColor=none;top=0;left=0;bottom=0;right=0;align=left;spacingLeft=6;overflow=hidden;" vertex="1" parent="blood-row-8">
          <mxGeometry x="40" width="260" height="30" as="geometry" />
        </mxCell>

        <mxCell id="blood-row-9" value="" style="shape=tableRow;horizontal=0;startSize=0;swimlaneHead=0;swimlaneBody=0;fillColor=none;collapsible=0;dropTarget=0;points=[[0,0.5],[1,0.5]];portConstraint=eastwest;top=0;left=0;right=0;bottom=0;" vertex="1" parent="blood-table">
          <mxGeometry y="270" width="300" height="30" as="geometry" />
        </mxCell>
        <mxCell id="blood-row-9-col-1" value="" style="shape=partialRectangle;connectable=0;fillColor=none;top=0;left=0;bottom=0;right=0;overflow=hidden;" vertex="1" parent="blood-row-9">
          <mxGeometry width="40" height="30" as="geometry" />
        </mxCell>
        <mxCell id="blood-row-9-col-2" value="scraped_at: TIMESTAMP" style="shape=partialRectangle;connectable=0;fillColor=none;top=0;left=0;bottom=0;right=0;align=left;spacingLeft=6;overflow=hidden;" vertex="1" parent="blood-row-9">
          <mxGeometry x="40" width="260" height="30" as="geometry" />
        </mxCell>

        <!-- Scraping Log Table -->
        <mxCell id="log-table" value="scraping_log" style="shape=table;startSize=30;container=1;collapsible=0;childLayout=tableLayout;fixedRows=1;rowLines=0;fontStyle=1;align=center;resizeLast=1;fillColor=#d5e8d4;strokeColor=#82b366;" vertex="1" parent="1">
          <mxGeometry x="520" y="450" width="280" height="240" as="geometry" />
        </mxCell>
        <mxCell id="log-row-1" value="" style="shape=tableRow;horizontal=0;startSize=0;swimlaneHead=0;swimlaneBody=0;fillColor=none;collapsible=0;dropTarget=0;points=[[0,0.5],[1,0.5]];portConstraint=eastwest;top=0;left=0;right=0;bottom=1;" vertex="1" parent="log-table">
          <mxGeometry y="30" width="280" height="30" as="geometry" />
        </mxCell>
        <mxCell id="log-row-1-col-1" value="PK" style="shape=partialRectangle;connectable=0;fillColor=none;top=0;left=0;bottom=0;right=0;fontStyle=1;overflow=hidden;" vertex="1" parent="log-row-1">
          <mxGeometry width="40" height="30" as="geometry" />
        </mxCell>
        <mxCell id="log-row-1-col-2" value="id: BIGINT" style="shape=partialRectangle;connectable=0;fillColor=none;top=0;left=0;bottom=0;right=0;align=left;spacingLeft=6;fontStyle=1;overflow=hidden;" vertex="1" parent="log-row-1">
          <mxGeometry x="40" width="240" height="30" as="geometry" />
        </mxCell>

        <mxCell id="log-row-2" value="" style="shape=tableRow;horizontal=0;startSize=0;swimlaneHead=0;swimlaneBody=0;fillColor=none;collapsible=0;dropTarget=0;points=[[0,0.5],[1,0.5]];portConstraint=eastwest;top=0;left=0;right=0;bottom=0;" vertex="1" parent="log-table">
          <mxGeometry y="60" width="280" height="30" as="geometry" />
        </mxCell>
        <mxCell id="log-row-2-col-1" value="FK" style="shape=partialRectangle;connectable=0;fillColor=none;top=0;left=0;bottom=0;right=0;fontStyle=1;overflow=hidden;" vertex="1" parent="log-row-2">
          <mxGeometry width="40" height="30" as="geometry" />
        </mxCell>
        <mxCell id="log-row-2-col-2" value="rckik_id: BIGINT" style="shape=partialRectangle;connectable=0;fillColor=none;top=0;left=0;bottom=0;right=0;align=left;spacingLeft=6;overflow=hidden;" vertex="1" parent="log-row-2">
          <mxGeometry x="40" width="240" height="30" as="geometry" />
        </mxCell>

        <mxCell id="log-row-3" value="" style="shape=tableRow;horizontal=0;startSize=0;swimlaneHead=0;swimlaneBody=0;fillColor=none;collapsible=0;dropTarget=0;points=[[0,0.5],[1,0.5]];portConstraint=eastwest;top=0;left=0;right=0;bottom=0;" vertex="1" parent="log-table">
          <mxGeometry y="90" width="280" height="30" as="geometry" />
        </mxCell>
        <mxCell id="log-row-3-col-1" value="" style="shape=partialRectangle;connectable=0;fillColor=none;top=0;left=0;bottom=0;right=0;overflow=hidden;" vertex="1" parent="log-row-3">
          <mxGeometry width="40" height="30" as="geometry" />
        </mxCell>
        <mxCell id="log-row-3-col-2" value="executed_at: TIMESTAMP" style="shape=partialRectangle;connectable=0;fillColor=none;top=0;left=0;bottom=0;right=0;align=left;spacingLeft=6;overflow=hidden;" vertex="1" parent="log-row-3">
          <mxGeometry x="40" width="240" height="30" as="geometry" />
        </mxCell>

        <mxCell id="log-row-4" value="" style="shape=tableRow;horizontal=0;startSize=0;swimlaneHead=0;swimlaneBody=0;fillColor=none;collapsible=0;dropTarget=0;points=[[0,0.5],[1,0.5]];portConstraint=eastwest;top=0;left=0;right=0;bottom=0;" vertex="1" parent="log-table">
          <mxGeometry y="120" width="280" height="30" as="geometry" />
        </mxCell>
        <mxCell id="log-row-4-col-1" value="" style="shape=partialRectangle;connectable=0;fillColor=none;top=0;left=0;bottom=0;right=0;overflow=hidden;" vertex="1" parent="log-row-4">
          <mxGeometry width="40" height="30" as="geometry" />
        </mxCell>
        <mxCell id="log-row-4-col-2" value="status: VARCHAR(20)" style="shape=partialRectangle;connectable=0;fillColor=none;top=0;left=0;bottom=0;right=0;align=left;spacingLeft=6;overflow=hidden;" vertex="1" parent="log-row-4">
          <mxGeometry x="40" width="240" height="30" as="geometry" />
        </mxCell>

        <mxCell id="log-row-5" value="" style="shape=tableRow;horizontal=0;startSize=0;swimlaneHead=0;swimlaneBody=0;fillColor=none;collapsible=0;dropTarget=0;points=[[0,0.5],[1,0.5]];portConstraint=eastwest;top=0;left=0;right=0;bottom=0;" vertex="1" parent="log-table">
          <mxGeometry y="150" width="280" height="30" as="geometry" />
        </mxCell>
        <mxCell id="log-row-5-col-1" value="" style="shape=partialRectangle;connectable=0;fillColor=none;top=0;left=0;bottom=0;right=0;overflow=hidden;" vertex="1" parent="log-row-5">
          <mxGeometry width="40" height="30" as="geometry" />
        </mxCell>
        <mxCell id="log-row-5-col-2" value="records_scraped: INTEGER" style="shape=partialRectangle;connectable=0;fillColor=none;top=0;left=0;bottom=0;right=0;align=left;spacingLeft=6;overflow=hidden;" vertex="1" parent="log-row-5">
          <mxGeometry x="40" width="240" height="30" as="geometry" />
        </mxCell>

        <mxCell id="log-row-6" value="" style="shape=tableRow;horizontal=0;startSize=0;swimlaneHead=0;swimlaneBody=0;fillColor=none;collapsible=0;dropTarget=0;points=[[0,0.5],[1,0.5]];portConstraint=eastwest;top=0;left=0;right=0;bottom=0;" vertex="1" parent="log-table">
          <mxGeometry y="180" width="280" height="30" as="geometry" />
        </mxCell>
        <mxCell id="log-row-6-col-1" value="" style="shape=partialRectangle;connectable=0;fillColor=none;top=0;left=0;bottom=0;right=0;overflow=hidden;" vertex="1" parent="log-row-6">
          <mxGeometry width="40" height="30" as="geometry" />
        </mxCell>
        <mxCell id="log-row-6-col-2" value="error_message: TEXT" style="shape=partialRectangle;connectable=0;fillColor=none;top=0;left=0;right=0;align=left;spacingLeft=6;overflow=hidden;" vertex="1" parent="log-row-6">
          <mxGeometry x="40" width="240" height="30" as="geometry" />
        </mxCell>

        <mxCell id="log-row-7" value="" style="shape=tableRow;horizontal=0;startSize=0;swimlaneHead=0;swimlaneBody=0;fillColor=none;collapsible=0;dropTarget=0;points=[[0,0.5],[1,0.5]];portConstraint=eastwest;top=0;left=0;right=0;bottom=0;" vertex="1" parent="log-table">
          <mxGeometry y="210" width="280" height="30" as="geometry" />
        </mxCell>
        <mxCell id="log-row-7-col-1" value="" style="shape=partialRectangle;connectable=0;fillColor=none;top=0;left=0;bottom=0;right=0;overflow=hidden;" vertex="1" parent="log-row-7">
          <mxGeometry width="40" height="30" as="geometry" />
        </mxCell>
        <mxCell id="log-row-7-col-2" value="duration_ms: BIGINT" style="shape=partialRectangle;connectable=0;fillColor=none;top=0;left=0;bottom=0;right=0;align=left;spacingLeft=6;overflow=hidden;" vertex="1" parent="log-row-7">
          <mxGeometry x="40" width="240" height="30" as="geometry" />
        </mxCell>

        <!-- Relationships -->
        <mxCell id="relation-1" value="" style="edgeStyle=entityRelationEdgeStyle;fontSize=12;html=1;endArrow=ERmandOne;startArrow=ERmandOne;exitX=1;exitY=0.5;exitDx=0;exitDy=0;entryX=0;entryY=0.5;entryDx=0;entryDy=0;" edge="1" parent="1" source="rckik-row-1" target="blood-row-2">
          <mxGeometry width="100" height="100" relative="1" as="geometry">
            <mxPoint x="380" y="280" as="sourcePoint" />
            <mxPoint x="480" y="180" as="targetPoint" />
          </mxGeometry>
        </mxCell>
        <mxCell id="relation-1-label" value="1" style="edgeLabel;html=1;align=center;verticalAlign=middle;resizable=0;points=[];" vertex="1" connectable="0" parent="relation-1">
          <mxGeometry x="-0.8" y="-1" relative="1" as="geometry">
            <mxPoint x="5" y="-11" as="offset" />
          </mxGeometry>
        </mxCell>
        <mxCell id="relation-1-label2" value="N" style="edgeLabel;html=1;align=center;verticalAlign=middle;resizable=0;points=[];" vertex="1" connectable="0" parent="relation-1">
          <mxGeometry x="0.8" y="1" relative="1" as="geometry">
            <mxPoint x="-5" y="-11" as="offset" />
          </mxGeometry>
        </mxCell>

        <mxCell id="relation-2" value="" style="edgeStyle=entityRelationEdgeStyle;fontSize=12;html=1;endArrow=ERmandOne;startArrow=ERmandOne;exitX=0;exitY=0.5;exitDx=0;exitDy=0;entryX=1;entryY=0.5;entryDx=0;entryDy=0;" edge="1" parent="1" source="log-row-2" target="rckik-row-1">
          <mxGeometry width="100" height="100" relative="1" as="geometry">
            <mxPoint x="370" y="125" as="sourcePoint" />
            <mxPoint x="530" y="155" as="targetPoint" />
            <Array as="points">
              <mxPoint x="450" y="350" />
            </Array>
          </mxGeometry>
        </mxCell>
        <mxCell id="relation-2-label" value="1" style="edgeLabel;html=1;align=center;verticalAlign=middle;resizable=0;points=[];" vertex="1" connectable="0" parent="relation-2">
          <mxGeometry x="-0.8" y="-1" relative="1" as="geometry">
            <mxPoint x="-5" y="-11" as="offset" />
          </mxGeometry>
        </mxCell>
        <mxCell id="relation-2-label2" value="N" style="edgeLabel;html=1;align=center;verticalAlign=middle;resizable=0;points=[];" vertex="1" connectable="0" parent="relation-2">
          <mxGeometry x="0.8" y="1" relative="1" as="geometry">
            <mxPoint x="5" y="-11" as="offset" />
          </mxGeometry>
        </mxCell>

        <!-- Title -->
        <mxCell id="title" value="Blood Scraper - Database ERD" style="text;html=1;strokeColor=none;fillColor=none;align=center;verticalAlign=middle;whiteSpace=wrap;rounded=0;fontSize=18;fontStyle=1" vertex="1" parent="1">
          <mxGeometry x="300" y="20" width="300" height="30" as="geometry" />
        </mxCell>
      </root>
    </mxGraphModel>
  </diagram>
</mxfile>
